<?xml version="1.0" encoding="utf-8"?>
<!-- Generator: Adobe Illustrator 26.0.0, SVG Export Plug-In . SVG Version: 6.00 Build 0)  -->
<svg version="1.1" id="Capa_2" xmlns="http://www.w3.org/2000/svg" xmlns:xlink="http://www.w3.org/1999/xlink" x="0px" y="0px"
	 viewBox="0 0 1111.99 581.89" style="enable-background:new 0 0 1111.99 581.89;" xml:space="preserve">
<style type="text/css">
	.st0{fill:#F675A8;}
	.st1{fill:#FFE3F2;}
	.st2{fill:none;stroke:#F675A8;stroke-width:10;stroke-linecap:round;stroke-linejoin:round;}
	.st3{fill:none;stroke:#F675A8;stroke-width:10;stroke-linecap:round;stroke-miterlimit:10;}
</style>
<g>
	<g id="XMLID_00000095301602465963278980000013358813600357845888_">
		<g>
			<path class="st0" d="M254.27,258.71c31.97-29.64,37.89-79.15,12.09-115.84c39.62,56.32,105.41,9.87,105.41,9.87
				c-31.2-7.13-26.43-37.49-26.43-37.49s0.55-3.76-0.18-8.98c-1.24-9.55-6.45-23.92-26.25-28.5c-30.55-7.02-26.52-37.51-26.52-37.51
				s-28.83,20.33-36.75,50.52c-4.09,15.27-2.75,33.11,10.71,52.09c-28.2-40.01-83.43-49.57-123.43-21.37
				c-3.3,2.33-6.39,4.85-9.26,7.53c-31.97,29.71-37.89,79.21-12.09,115.82c-39.63-56.23-105.41-9.87-105.41-9.87
				s30.08,6.36,26.43,37.49c-3.65,31.12,26.5,37.59,26.5,37.59s30.12,5.6,26.43,37.49c0,0,65.77-46.36,26.06-102.7
				c11.94,16.93,28.71,28.42,47.13,33.88c19.57,5.81,40.99,4.84,60.41-3.58c5.49-2.38,10.81-5.35,15.9-8.94
				C248.31,263.88,251.39,261.37,254.27,258.71z M387.89,193.99c0,35.35-9.43,68.49-26,96.95l-2.38,4.18L193.99,581.89L28.13,294.55
				l-1.06-1.8c-0.41-0.58-0.74-1.15-0.99-1.8H26c-16.57-28.46-26-61.6-26-96.95C0,86.86,86.87,0,193.99,0
				C301.12,0,387.89,86.86,387.89,193.99z"/>
			<path class="st1" d="M345.17,106.27c0.73,5.23,0.18,8.98,0.18,8.98s-4.77,30.35,26.43,37.49c0,0-65.78,46.45-105.41-9.87
				c-13.46-18.98-14.8-36.82-10.71-52.09c7.93-30.19,36.75-50.52,36.75-50.52s-4.03,30.49,26.52,37.51
				C338.73,82.34,343.93,96.72,345.17,106.27z"/>
			<path class="st1" d="M254.27,258.71c-2.88,2.67-5.96,5.17-9.26,7.5c-5.08,3.58-10.41,6.56-15.9,8.94
				c-19.42,8.42-40.84,9.39-60.41,3.58c-18.42-5.47-35.19-16.95-47.13-33.88c-25.8-36.61-19.88-86.1,12.09-115.82
				c2.88-2.68,5.96-5.2,9.26-7.53c40-28.2,95.23-18.64,123.43,21.37C292.16,179.56,286.24,229.06,254.27,258.71z"/>
			<path class="st1" d="M121.58,244.84c39.72,56.34-26.06,102.7-26.06,102.7c3.69-31.89-26.43-37.49-26.43-37.49
				s-30.15-6.47-26.5-37.59c3.66-31.13-26.43-37.49-26.43-37.49S81.95,188.61,121.58,244.84z"/>
		</g>
		<g>
			<path class="st2" d="M121.58,244.84c39.72,56.34-26.06,102.7-26.06,102.7c3.69-31.89-26.43-37.49-26.43-37.49
				s-30.15-6.47-26.5-37.59c3.66-31.13-26.43-37.49-26.43-37.49S81.95,188.61,121.58,244.84z"/>
			<path class="st2" d="M266.37,142.87c25.79,36.69,19.87,86.2-12.09,115.84c-2.88,2.67-5.96,5.17-9.26,7.5
				c-5.08,3.58-10.41,6.56-15.9,8.94c-19.42,8.42-40.84,9.39-60.41,3.58c-18.42-5.47-35.19-16.95-47.13-33.88"/>
			<path class="st2" d="M266.37,142.87c-13.46-18.98-14.8-36.82-10.71-52.09c7.93-30.19,36.75-50.52,36.75-50.52
				s-4.03,30.49,26.52,37.51c19.8,4.58,25.01,18.96,26.25,28.5c0.73,5.23,0.18,8.98,0.18,8.98s-4.77,30.35,26.43,37.49
				C371.77,152.74,305.99,199.19,266.37,142.87z"/>
			<path class="st2" d="M121.58,244.84c-25.8-36.61-19.88-86.1,12.09-115.82c2.88-2.68,5.96-5.2,9.26-7.53
				c40-28.2,95.23-18.64,123.43,21.37"/>
			<line class="st3" x1="213.46" y1="108.51" x2="234.42" y2="157.51"/>
			<polyline class="st3" points="169.23,279.95 168.71,278.72 147.3,228.68 			"/>
			<polyline class="st3" points="255.3,261.1 254.27,258.71 218.36,174.76 			"/>
			<polyline class="st3" points="132.84,127.08 133.67,129.02 176.9,230.06 			"/>
			<line class="st3" x1="194.33" y1="193.86" x2="159.46" y2="112.5"/>
			<polyline class="st3" points="229.18,275.29 229.11,275.14 204.96,218.69 			"/>
		</g>
	</g>
</g>
<path class="st1" d="M375.03,274.45c7.42,5.47,16.31,8.2,26.66,8.2c3.9,0,7.96-0.39,12.16-1.17c2.34-0.49,3.86-1.07,4.54-1.76
	c0.39-0.39,0.59-0.78,0.59-1.17c0-0.29-0.12-0.71-0.37-1.25c-0.25-0.54-0.86-1.29-1.83-2.27c-0.49-0.59-1.03-1.27-1.61-2.05
	c-7.42-10.74-11.13-21.87-11.13-33.4c0-3.42,0.88-9.89,2.64-19.41s8.18-19.68,19.26-30.47c11.08-10.79,24.05-16.28,38.89-16.48
	c17.19,0.88,29.69,6.69,37.5,17.43c7.81,10.74,11.77,23.68,11.87,38.82v0.73c0,14.75-3,28.96-9.01,42.63
	c-6.01,13.67-14.33,23.93-24.98,30.76c-3.91,2.44-8.16,4.25-12.74,5.42c1.27-3.61,2.59-7.18,3.96-10.69
	c4.3-11.03,8.18-22.49,11.65-34.35c3.46-11.87,5.88-25.32,7.25-40.36c0.1-1.17,0.15-2.34,0.15-3.52c0-11.03-3.03-19.24-9.08-24.61
	c-5.76-5.08-12.55-7.62-20.36-7.62c-1.17,0-4.37,0.27-9.59,0.81c-5.23,0.54-11.5,4.71-18.82,12.52c-1.17,1.46-1.76,2.69-1.76,3.66
	c0,0.2,0.02,0.59,0.07,1.17c0.05,0.59,0.51,1.22,1.39,1.9c0.88,0.68,1.71,1.22,2.49,1.61c0.39,0.1,0.68,0.25,0.88,0.44
	c2.44,1.46,4.34,3.61,5.71,6.45c0.68,1.46,1.03,3.22,1.03,5.27c0,1.95-0.34,4.25-1.03,6.88c-4.39,15.63-9.33,31.35-14.79,47.17
	c-5.27,15.63-9.99,30.76-14.14,45.41c-4.15,14.65-6.57,28.12-7.25,40.43v1.17c0,10.65,2.68,19.17,8.06,25.56
	c5.37,6.39,12.21,10.42,20.51,12.08c2.54,0.49,5.03,0.73,7.47,0.73c5.76,0,11.47-1.27,17.14-3.81c1.95-0.88,3.08-1.71,3.37-2.49
	c0.1-0.29,0.15-0.54,0.15-0.73c0-0.59-0.25-1.17-0.73-1.76c-0.49-0.59-1.17-1.22-2.05-1.9c-0.39-0.29-0.73-0.59-1.03-0.88
	c-4.2-4.2-6.3-9.38-6.3-15.53c0-0.29,0.05-2.15,0.15-5.57c0.1-3.42,0.88-8.01,2.34-13.77c0.1-0.68,0.24-1.32,0.44-1.9
	c2.44-11.43,5.27-21.92,8.5-31.49h1.17c3.12,0,8.35-0.59,15.67-1.76c21.97-4.2,39.87-12.33,53.69-24.39
	c13.82-12.06,23.17-25.9,28.05-41.53c2.44-7.71,3.66-15.33,3.66-22.85c0-7.62-1.9-17.02-5.71-28.2
	c-3.81-11.18-13.6-21.68-29.37-31.49c-15.77-9.81-37.33-14.92-64.67-15.31c-29.59,0.29-52.91,5.1-69.95,14.43
	c-17.04,9.33-28.69,20.73-34.94,34.2c-4.39,9.38-6.59,18.6-6.59,27.69c0,4.01,0.93,10.21,2.78,18.6
	C358.86,259.12,364.87,267.03,375.03,274.45z"/>
<path class="st1" d="M1110.67,310.64c-0.88-0.78-2.49-1.37-4.83-1.76c-3.52-0.39-6.06-0.02-7.62,1.1c-1.56,1.12-2.54,2.47-2.93,4.03
	c-4.69,11.92-9.96,21.49-15.82,28.71c-5.86,7.23-11.87,12.35-18.02,15.38c5.17-10.35,8.94-21.04,11.28-32.08
	c3.12-15.14,3.05-29.3-0.22-42.48c-3.27-13.18-9.81-23.46-19.63-30.83c-9.81-7.37-22.92-9.89-39.33-7.54
	c-10.84,1.95-19.26,6.15-25.27,12.6s-10.38,13.38-13.11,20.8c-2.74,7.42-4.59,13.67-5.57,18.75c-0.39,1.56-0.73,2.88-1.03,3.96
	c-4.3,4.1-7.86,12.04-10.69,23.8c-1.1,4.56-1.9,9.24-2.41,14.03c-0.83,1.44-1.68,2.88-2.57,4.28c-5.37,8.45-12.36,15.6-20.95,21.46
	c-2.05,1.27-4.39,1.9-7.03,1.9c-0.78,0-2.34-0.15-4.69-0.44s-4.64-2.2-6.88-5.71c-1.27-1.95-1.9-4.49-1.9-7.62
	c0-2.54,0.39-5.42,1.17-8.64c1.85-6.74,4.88-17.19,9.08-31.35c3.71-12.5,7.54-25.64,11.5-39.4s7.25-25.98,9.89-36.62h14.21
	c2.34,0,4.61-2.07,6.81-6.23c2.2-4.15,3.93-8.67,5.2-13.55c0.68-2.34,1.07-4.54,1.17-6.59v-0.88c0-1.56-0.42-2.9-1.25-4.03
	c-0.83-1.12-2.56-1.68-5.2-1.68h-12.89c0.59-3.42,0.93-6.25,1.03-8.5v-1.46c0-11.13-3.22-19.34-9.67-24.61
	c-5.67-4.59-12.11-6.88-19.34-6.88c-1.46,0-4.86,0.32-10.18,0.95c-5.32,0.64-11.55,4.76-18.68,12.38c-1.17,1.37-1.76,2.59-1.76,3.66
	c0,0.1,0.05,0.46,0.15,1.1c0.1,0.64,0.56,1.3,1.39,1.98c0.83,0.68,1.63,1.22,2.42,1.61c0.39,0.1,0.68,0.25,0.88,0.44
	c2.44,1.46,4.34,3.61,5.71,6.45c0.68,1.46,1.03,3.22,1.03,5.27c0,1.95-0.34,4.25-1.03,6.88c-0.1,0.2-0.15,0.34-0.15,0.44v0.29
	h-14.94c-2.34,0-4.54,0.73-6.59,2.2s-3.71,4.05-4.98,7.76c-0.59,1.76-1.15,3.83-1.68,6.23c-0.54,2.39-0.95,4.57-1.25,6.52
	c-0.19,1.37-0.29,2.64-0.29,3.81c0,1.46,0.27,2.91,0.81,4.32c0.54,1.42,1.44,2.12,2.71,2.12h16.99c-0.98,3.22-2.05,6.74-3.22,10.55
	c-5.08,16.6-10.52,34.86-16.33,54.79c-2.59,8.88-4.84,16.98-6.76,24.31c-1.88,3.75-4.18,8.02-6.93,12.82
	c-5.96,10.4-13.33,18.87-22.12,25.42c-1.86,1.27-3.32,1.9-4.39,1.9c-1.17,0-2-0.68-2.49-2.05c-0.2-0.68-0.29-1.61-0.29-2.78
	c0-3.52,1.07-9.38,3.22-17.58c3.32-11.91,7.18-22.9,11.57-32.96c1.17-2.83,2.34-5.76,3.52-8.79c3.32-8.3,5.13-14.75,5.42-19.34
	c0.29-4.59,0.44-7.37,0.44-8.35c0-7.13-1.76-13.38-5.27-18.75c-4.01-6.15-11.08-10.06-21.24-11.72c-1.56-0.19-3.13-0.29-4.69-0.29
	c-9.18,0-17.38,2.98-24.61,8.94c-8.4,7.03-15.53,15.77-21.39,26.22v-3.08c0-11.13-3.03-19.38-9.08-24.76
	c-5.76-5.08-12.55-7.62-20.36-7.62c-1.17,0-2.34,0.05-3.52,0.15c-9.28,0.98-17.58,5.42-24.9,13.33c-1.17,1.37-1.76,2.54-1.76,3.52
	v0.44c0.2,1.08,0.71,1.95,1.54,2.64c0.83,0.68,1.68,1.22,2.56,1.61c0.29,0.2,0.54,0.34,0.73,0.44c2.44,1.46,4.17,3.27,5.2,5.42
	c1.03,2.15,1.54,4.25,1.54,6.3c0,1.95-0.34,4.25-1.03,6.88c-3.61,12.31-7.37,23.15-11.28,32.52c-2.64,6.56-4.97,13.05-7.02,19.46
	c-0.53,0.94-1.06,1.89-1.63,2.88c-5.96,10.4-13.33,18.87-22.12,25.42c-1.86,1.27-3.37,1.9-4.54,1.9s-2-0.68-2.49-2.05
	c-0.2-0.59-0.29-1.46-0.29-2.64c0-3.52,1.07-9.42,3.22-17.72c2.44-8.5,5.08-16.55,7.91-24.17c4.88-12.3,8.54-25.83,10.99-40.58
	c0.19-2.15,0.29-4.2,0.29-6.15c0-9.47-2.74-16.7-8.2-21.68c-5.86-5.17-12.79-7.76-20.8-7.76c-1.17,0-4.47,0.25-9.89,0.73
	c-5.42,0.49-11.79,4.69-19.12,12.6c-1.17,1.37-1.76,2.54-1.76,3.52c0,0.2,0.05,0.59,0.15,1.17c0.1,0.59,0.56,1.22,1.39,1.9
	c0.83,0.68,1.63,1.22,2.42,1.61l0.88,0.44c2.44,1.46,4.34,3.66,5.71,6.59c0.68,1.37,1.03,3.08,1.03,5.13c0,1.95-0.34,4.25-1.03,6.88
	c-0.1,0.39-0.2,0.73-0.29,1.03c-2.44,8.69-5.27,17.68-8.5,26.95c-3.22,9.28-7.18,18.12-11.87,26.51
	c-5.76,10.65-13.33,19.24-22.71,25.78c-1.76,1.27-3.22,1.9-4.39,1.9s-2-0.68-2.49-2.05c-0.2-0.59-0.29-1.46-0.29-2.64
	c0-3.52,1.07-9.42,3.22-17.72c2.15-7.42,4.83-15.48,8.06-24.17c5.86-14.65,9.72-28.13,11.57-40.43c0.1-1.17,0.15-2.34,0.15-3.52
	c0-10.94-3.03-19.09-9.08-24.46c-5.67-5.08-12.36-7.62-20.07-7.62c-1.27,0-4.57,0.25-9.89,0.73c-5.32,0.49-11.65,4.69-18.97,12.6
	c-1.17,1.46-1.76,2.69-1.76,3.66c0,0.1,0.05,0.44,0.15,1.03c0.1,0.59,0.59,1.22,1.46,1.9c0.88,0.68,1.71,1.22,2.49,1.61
	c0.29,0.2,0.54,0.34,0.73,0.44c2.54,1.46,4.44,3.66,5.71,6.59c0.68,1.37,1.03,3.08,1.03,5.13s-0.34,4.39-1.03,7.03
	c-3.42,12.6-6.45,23.19-9.08,31.79c-2.73,7.13-5.17,14.65-7.32,22.56c-2.15,8.2-3.46,14.89-3.96,20.07
	c-0.19,2.15-0.29,4.25-0.29,6.3c0,8.4,1.66,16.26,4.98,23.58c3.32,7.32,9.13,11.72,17.43,13.18c1.37,0.1,2.73,0.15,4.1,0.15
	c9.28,0,18.09-3.52,26.44-10.55s16.09-15.82,23.22-26.37c0.1,9.57,2.17,17.77,6.23,24.61c4.05,6.83,9.84,10.89,17.36,12.16
	c1.56,0.19,3.08,0.29,4.54,0.29c9.67,0,18.99-3.54,27.98-10.62c6.77-5.34,13.01-11.83,18.7-19.48c1.01,6.94,3.47,12.72,7.38,17.35
	c5.47,6.45,10.89,10.2,16.26,11.28c5.37,1.07,9.28,1.61,11.72,1.61c5.76,0,11.47-1.27,17.14-3.81c1.95-0.88,3.03-1.59,3.22-2.12
	c0.19-0.54,0.29-0.9,0.29-1.1c0-0.49-0.2-0.98-0.59-1.46c-0.59-0.78-1.32-1.52-2.2-2.2c-0.39-0.29-0.73-0.59-1.03-0.88
	c-4.2-4.2-6.3-9.38-6.3-15.53v-0.88c0.29-6.54,1.12-12.69,2.49-18.46c0.19-0.68,0.34-1.32,0.44-1.9
	c3.03-13.67,6.45-24.61,10.25-32.81c3.32-8.01,7.35-15.4,12.08-22.19c4.74-6.79,10.67-12.57,17.8-17.36c1.76-1.27,3.27-1.9,4.54-1.9
	c1.27,0,2.2,0.73,2.78,2.2c0.29,0.68,0.44,1.71,0.44,3.08c0,3.52-1.27,9.18-3.81,16.99c-1.46,4.2-2.93,8.3-4.39,12.3
	c-2.93,7.81-5.57,15.97-7.91,24.46c-2.15,8.2-3.47,14.89-3.96,20.07c-0.1,1.76-0.15,3.52-0.15,5.27c0,8.89,1.66,16.7,4.98,23.44
	c4.1,8.1,10.3,12.89,18.6,14.36c1.56,0.19,3.08,0.29,4.54,0.29c9.67,0,18.7-3.32,27.1-9.96c8.93-7.02,16.79-15.64,23.6-25.81
	c1.32,6.93,4.41,13.5,9.29,19.73c6.69,8.54,16.04,13.79,28.05,15.75c1.56,0.19,3.08,0.29,4.54,0.29c9.76,0,19.16-3.54,28.2-10.62
	c8.68-6.8,16.54-15.5,23.6-26.05c1.4,11.99,5.42,22.14,12.06,30.45c7.23,9.03,18.7,12.82,34.42,11.35
	c15.92-2.44,29.78-10.25,41.6-23.44c2.54-0.39,4.93-0.88,7.18-1.46c9.96-2.73,18.92-7.71,26.88-14.94
	c7.96-7.23,14.77-15.48,20.43-24.76c5.66-9.28,10.16-18.31,13.48-27.1c0.29-0.88,0.44-1.81,0.44-2.78
	C1111.99,312.3,1111.55,311.42,1110.67,310.64z M1041.39,324.4c-1.46,5.86-3.13,11.28-4.98,16.26c-1.27-0.39-2.64-0.59-4.1-0.59
	c-4.59,0-8.77,1.9-12.52,5.71c-3.76,3.81-6.03,8.45-6.81,13.92c-0.49,3.71-0.25,7.03,0.73,9.96c-1.76,0.2-3.27-0.29-4.54-1.46
	c-2.54-2.05-4.23-4.83-5.05-8.35c-0.83-3.52-0.86-9.06-0.07-16.63c0.78-7.57,1.61-12.82,2.49-15.75c1.85-5.57,3.88-9.86,6.08-12.89
	c2.2-3.03,4.17-5.32,5.93-6.88c0.1-0.1,0.19-0.15,0.29-0.15c1.46-1.66,2.07-3.83,1.83-6.52c-0.25-2.68-1.88-4.56-4.91-5.64
	c4.88-9.96,9.57-14.45,14.06-13.48c7.52,1.56,12.01,6.4,13.48,14.5C1044.75,304.53,1044.12,313.86,1041.39,324.4z"/>
<path class="st1" d="M297.09,435.4c0-13.18-2.2-27.91-6.59-44.17s-14.58-30.81-30.54-43.65c-15.97-12.84-38.16-19.5-66.58-20
	c-28.91,0.29-51.66,5.1-68.26,14.43c-16.6,9.33-27.98,20.73-34.13,34.2c-4.2,9.47-6.3,18.75-6.3,27.83c0,4.01,0.85,10.21,2.56,18.6
	c1.71,8.4,7.4,16.36,17.07,23.88c7.13,5.47,15.67,8.2,25.63,8.2c3.61,0,7.42-0.34,11.43-1.03c2.34-0.49,3.86-1.07,4.54-1.76
	c0.39-0.39,0.59-0.78,0.59-1.17c0-0.29-0.12-0.71-0.37-1.25c-0.25-0.54-0.81-1.29-1.68-2.27c-0.59-0.59-1.17-1.27-1.76-2.05
	c-7.52-10.84-11.28-22.07-11.28-33.69c0-3.42,0.85-9.86,2.56-19.34c1.71-9.47,8.03-19.6,18.97-30.4
	c10.94-10.79,23.83-16.28,38.67-16.48c20.02,0.98,34.47,8.35,43.36,22.12c8.88,13.77,13.43,30.96,13.62,51.56v2.93
	c0,19.63-2.93,39.89-8.79,60.79c-5.86,20.9-13.67,39.46-23.44,55.66c-5.67,9.08-11.72,16.11-18.16,21.09
	c-4.1,3.12-7.62,4.69-10.55,4.69c-1.76,0-3.32-0.54-4.69-1.61c-2.15-1.66-3.22-5.27-3.22-10.84c0-4,0.59-9.13,1.76-15.38
	c0.78-3.81,2.15-9.54,4.1-17.21c1.95-7.67,3.98-15.5,6.08-23.51c2.1-8.01,3.88-14.4,5.35-19.19l4.83-15.53
	c0.49-1.76,0.97-3.46,1.46-5.13c8.4-24.71,13.33-44.68,14.79-59.91c0.1-1.17,0.15-2.34,0.15-3.52c0-11.03-3.03-19.24-9.08-24.61
	c-5.76-5.08-12.55-7.62-20.36-7.62c-1.17,0-4.37,0.27-9.59,0.81c-5.23,0.54-11.5,4.71-18.82,12.52c-1.17,1.46-1.76,2.69-1.76,3.66
	c0,0.2,0.05,0.59,0.15,1.17c0.1,0.59,0.56,1.22,1.39,1.9c0.83,0.68,1.63,1.22,2.42,1.61c0.39,0.1,0.68,0.25,0.88,0.44
	c2.44,1.46,4.34,3.61,5.71,6.45c0.68,1.46,1.03,3.22,1.03,5.27c0,1.96-0.34,4.25-1.03,6.88c-2.64,9.47-6.1,21.09-10.4,34.86
	c-5.67,17.97-11.01,36.11-16.04,54.42c-5.03,18.31-7.94,32.89-8.72,43.73v0.44c0,14.75,5.05,25.83,15.16,33.25
	c10.11,7.42,22.63,12.06,37.57,13.92c2.83,0.29,5.61,0.44,8.35,0.44c15.04,0,29.56-5.1,43.58-15.31
	c14.01-10.2,26.12-24.92,36.33-44.17c10.2-19.24,16.92-39.94,20.14-62.11C296.45,451.81,297.09,443.51,297.09,435.4z"/>
<path class="st1" d="M761.45,484.47c-1.17-0.49-2.49-0.73-3.96-0.73c-0.88,0-1.86,0.1-2.93,0.29c-2.54,0.59-4.35,2-5.42,4.25
	c-3.13,8.01-8.59,16.7-16.41,26.07c-7.81,9.38-16.19,17.12-25.12,23.22c-8.94,6.1-15.94,9.16-21.02,9.16l-1.32-0.15
	c-5.08-0.68-7.62-7.42-7.62-20.21v-0.73c0.29-6.15,0.59-11.52,0.88-16.11c2.93,0.29,5.76,0.44,8.5,0.44
	c11.62,0,21.97-2.98,31.05-8.94c11.13-7.32,18.09-15.72,20.87-25.2c2.78-9.47,4.17-16.6,4.17-21.39c0-7.52-2-14.4-6.01-20.65
	c-6.54-10.06-17.14-15.92-31.79-17.58c-1.96-0.29-3.91-0.44-5.86-0.44c-7.52,0-14.94,2.05-22.27,6.15
	c-9.38,5.08-17.58,13.33-24.61,24.76c-6.35,10.45-11.92,22.27-16.7,35.45c-2.84,7.83-4.91,14.61-6.22,20.36
	c-1.99,3.19-4.26,6.56-6.82,10.11c-6.74,9.38-13.7,17.38-20.87,24.02c-7.18,6.64-13.26,9.96-18.24,9.96h-1.17
	c-5.08-0.68-7.62-7.18-7.62-19.48v-1.46c0.29-8.3,1.56-16.97,3.81-26c2.25-9.03,5.08-17.16,8.5-24.39
	c6.05-12.21,12.11-18.31,18.16-18.31c3.42,0,6.79,1.86,10.11,5.57c1.07,1.17,2.15,1.76,3.22,1.76c0.39,0,0.78-0.05,1.17-0.15
	c1.46-0.59,2.54-2.64,3.22-6.15c0.39-2.64,0.59-5.22,0.59-7.76c0-4.3-0.54-8.4-1.61-12.3c-1.66-6.25-4.76-11.35-9.3-15.31
	s-10.62-5.93-18.24-5.93c-6.45,0-12.67,1.27-18.68,3.81c-6.01,2.54-11.99,7.47-17.94,14.79c-6.94,8.5-13.58,20.27-19.92,35.3
	c-6.35,15.04-10.25,27.69-11.72,37.94c-0.26,1.81-0.49,3.52-0.71,5.15c-0.4,0.65-0.79,1.31-1.2,1.96
	c-5.37,8.45-12.36,15.6-20.95,21.46c-1.86,1.27-3.37,1.9-4.54,1.9s-2-0.68-2.49-2.05c-0.2-0.59-0.29-1.46-0.29-2.64
	c0-3.52,1.07-9.42,3.22-17.72c5.57-19.53,11.67-39.11,18.31-58.74c5.57-16.5,10.52-32.2,14.87-47.09
	c4.34-14.89,7.1-28.29,8.28-40.21v-3.08c0-11.23-3.03-19.58-9.08-25.05c-5.67-5.08-12.36-7.62-20.07-7.62
	c-1.27,0-4.54,0.27-9.81,0.81c-5.27,0.54-11.57,4.71-18.9,12.52c-1.17,1.46-1.76,2.69-1.76,3.66c0,0.1,0.05,0.44,0.15,1.03
	c0.1,0.59,0.59,1.22,1.46,1.9c0.88,0.68,1.71,1.22,2.49,1.61c0.29,0.2,0.54,0.34,0.73,0.44c2.44,1.56,4.34,3.76,5.71,6.59
	c0.68,1.37,1.03,3.08,1.03,5.13s-0.34,4.39-1.03,7.03c-6.15,22.07-12.5,43.17-19.04,63.28c-6.71,20.39-13.08,41.61-19.1,63.66
	c-1.48,2.82-3.16,5.89-5.07,9.21c-5.96,10.4-13.33,18.87-22.12,25.42c-1.86,1.27-3.37,1.9-4.54,1.9s-2-0.68-2.49-2.05
	c-0.2-0.59-0.29-1.46-0.29-2.64c0-3.52,1.07-9.42,3.22-17.72c2.44-8.5,5.08-16.55,7.91-24.17c4.88-12.3,8.54-25.83,10.99-40.58
	c0.19-2.15,0.29-4.2,0.29-6.15c0-9.47-2.74-16.7-8.2-21.68c-5.86-5.17-12.79-7.76-20.8-7.76c-1.17,0-4.47,0.25-9.89,0.73
	c-5.42,0.49-11.79,4.69-19.12,12.6c-1.17,1.37-1.76,2.54-1.76,3.52c0,0.2,0.05,0.59,0.15,1.17c0.1,0.59,0.56,1.22,1.39,1.9
	c0.83,0.68,1.63,1.22,2.42,1.61l0.88,0.44c2.44,1.46,4.34,3.66,5.71,6.59c0.68,1.37,1.03,3.08,1.03,5.13c0,1.96-0.34,4.25-1.03,6.88
	c-0.1,0.39-0.2,0.73-0.29,1.03c-2.44,8.69-5.27,17.68-8.5,26.95c-3.22,9.28-7.18,18.12-11.87,26.51
	c-5.76,10.65-13.33,19.24-22.71,25.78c-1.76,1.27-3.22,1.9-4.39,1.9s-2-0.68-2.49-2.05c-0.2-0.59-0.29-1.46-0.29-2.64
	c0-3.52,1.07-9.42,3.22-17.72c2.15-7.42,4.83-15.48,8.06-24.17c5.86-14.65,9.72-28.12,11.57-40.43c0.1-1.17,0.15-2.34,0.15-3.52
	c0-10.94-3.03-19.09-9.08-24.46c-5.67-5.08-12.36-7.62-20.07-7.62c-1.27,0-4.57,0.25-9.89,0.73c-5.32,0.49-11.65,4.69-18.97,12.6
	c-1.17,1.46-1.76,2.69-1.76,3.66c0,0.1,0.05,0.44,0.15,1.03c0.1,0.59,0.59,1.22,1.46,1.9c0.88,0.68,1.71,1.22,2.49,1.61
	c0.29,0.2,0.54,0.34,0.73,0.44c2.54,1.46,4.44,3.66,5.71,6.59c0.68,1.37,1.03,3.08,1.03,5.13s-0.34,4.39-1.03,7.03
	c-3.42,12.6-6.45,23.2-9.08,31.79c-2.73,7.13-5.17,14.65-7.32,22.56c-2.15,8.2-3.46,14.89-3.96,20.07c-0.19,2.15-0.29,4.25-0.29,6.3
	c0,8.4,1.66,16.26,4.98,23.58c3.32,7.32,9.13,11.72,17.43,13.18c1.37,0.1,2.73,0.15,4.1,0.15c9.28,0,18.09-3.52,26.44-10.55
	s16.09-15.82,23.22-26.37c0.1,9.57,2.17,17.78,6.23,24.61c4.05,6.83,9.84,10.89,17.36,12.16c1.56,0.19,3.08,0.29,4.54,0.29
	c9.67,0,18.99-3.54,27.98-10.62c7.39-5.82,14.12-13.03,20.22-21.59c0.65,6.64,2.39,12.84,5.27,18.59
	c3.71,7.42,9.72,11.87,18.02,13.33c1.56,0.19,3.08,0.29,4.54,0.29c9.76,0,19.16-3.54,28.2-10.62c7.86-6.16,15.03-13.86,21.52-23.09
	c0.91,5.94,2.59,11.42,5.06,16.42c5.47,11.03,16.6,16.85,33.4,17.43c12.4-0.49,24.71-5.64,36.91-15.45
	c10.12-8.14,19.23-17.47,27.34-27.97c0.73,8.75,3.19,16.63,7.38,23.65c5.86,9.67,16.21,16.26,31.05,19.78
	c3.03,0.59,6.1,0.88,9.23,0.88c8.4,0,16.99-2.1,25.78-6.3c11.91-5.76,21.68-12.94,29.3-21.53c7.62-8.59,14.45-18.6,20.51-30.03
	c6.05-11.43,10.35-21.14,12.89-29.15c0.1-0.39,0.15-0.78,0.15-1.17C763.94,486.14,763.11,485.06,761.45,484.47z M692.09,469.61
	c3.17-6.39,7.05-11.21,11.65-14.43c1.66-0.88,3.03-1.32,4.1-1.32c1.56,0,2.54,0.98,2.93,2.93c0.1,0.78,0.15,1.56,0.15,2.34
	c0,2.93-0.78,6.5-2.34,10.69c-2.15,5.37-5.01,9.79-8.57,13.26c-3.57,3.47-7.3,5.2-11.21,5.2c-1.17,0-2.39-0.15-3.66-0.44
	C686.59,482.08,688.91,476,692.09,469.61z"/>
<path class="st1" d="M300.66,347.7c1.33,0.61,2.82,0.92,4.49,0.92c1.4,0,2.93-0.22,4.59-0.66c0.71-0.2,1.09-0.44,1.12-0.71v-0.2
	c0-0.31-0.09-0.66-0.26-1.07c-0.24-0.51-0.46-1.21-0.66-2.09c-0.31-1.39-0.46-2.76-0.46-4.08c0-2.52,0.69-5.3,2.07-8.35
	c1.38-3.05,4.86-5.86,10.44-8.45c0.37-0.1,0.71-0.15,1.02-0.15c0.92,0,1.43,0.53,1.53,1.58c0.03,0.34,0.05,0.68,0.05,1.02
	c0,1.19-0.22,2.54-0.66,4.03c-0.89,3.27-1.72,6.25-2.5,8.93c-0.85,2.83-1.65,5.46-2.4,7.91c-3.03,9.67-5.55,17.6-7.56,23.79
	c-0.07,0.24-0.14,0.49-0.2,0.77c-2.11,6.3-3.3,11.52-3.57,15.67v0.97c0,3.44,0.91,6.25,2.73,8.42c1.82,2.18,4.19,3.56,7.12,4.14
	c0.88,0.17,1.79,0.26,2.71,0.26c2.01,0,4-0.43,5.97-1.28c0.65-0.31,1.04-0.61,1.17-0.92c0.03-0.1,0.05-0.19,0.05-0.26
	c0-0.17-0.09-0.37-0.26-0.59c-0.17-0.22-0.41-0.45-0.71-0.69c-0.14-0.1-0.26-0.2-0.36-0.31c-1.53-1.53-2.3-3.44-2.3-5.72
	c0-0.14,0.03-0.85,0.08-2.14c0.05-1.29,0.4-2.94,1.05-4.95c0.75-2.59,1.72-5.62,2.91-9.09l1.58-4.75l2.04-6.23
	c2.18-6.57,4.29-13.15,6.33-19.76c1.97-6.6,3.15-12.29,3.52-17.05c0.03-0.37,0.05-0.75,0.05-1.12c3.1,1.12,7.06,2.04,11.9,2.76
	c4.42,0.61,8,0.92,10.72,0.92h0.82c4.19-0.31,7.08-1.55,8.68-3.73c1.23-1.67,1.84-3.54,1.84-5.62c0-0.68-0.16-1.94-0.48-3.78
	c-0.32-1.84-1.56-4.07-3.7-6.69c-0.41-0.44-0.78-0.68-1.12-0.71h-0.15c-0.27,0-0.53,0.09-0.77,0.28c-0.24,0.19-0.43,0.43-0.59,0.71
	c-0.15,0.29-0.26,0.52-0.33,0.69c-0.48,1.29-1.8,2.27-3.96,2.94c-2.16,0.66-5.73,1.1-10.7,1.3c-3.3,0.14-6.14,0.2-8.53,0.2
	c-1.19,0-2.26-0.02-3.22-0.05h-1.63c-1.6,0-3.06,0.03-4.39,0.1c-0.14,0.03-0.29,0.05-0.46,0.05c-0.48,0-0.97,0.02-1.48,0.05h-0.05
	c-5.75,0.17-11.26,0.84-16.52,2.02c-5.26,1.17-9.81,3.11-13.66,5.79c-3.85,2.69-6.55,6.43-8.12,11.23
	c-0.41,1.43-0.61,2.81-0.61,4.14c0,1.46,0.36,3.14,1.07,5.03C296.68,345.02,298.25,346.54,300.66,347.7z"/>
<path class="st1" d="M368.87,349.95c-0.41,0.48-0.61,0.89-0.61,1.23c0,0.07,0.02,0.2,0.05,0.41c0.03,0.2,0.2,0.43,0.49,0.66
	c0.29,0.24,0.57,0.43,0.84,0.56l0.31,0.15c0.85,0.51,1.51,1.28,1.99,2.3c0.24,0.48,0.36,1.07,0.36,1.79c0,0.68-0.12,1.48-0.36,2.4
	c-0.03,0.14-0.07,0.26-0.1,0.36c-0.85,3.03-1.84,6.16-2.96,9.39c-1.12,3.23-2.5,6.31-4.14,9.24c-2.01,3.71-4.65,6.71-7.91,8.99
	c-0.61,0.44-1.12,0.66-1.53,0.66c-0.41,0-0.7-0.24-0.87-0.71c-0.07-0.2-0.1-0.51-0.1-0.92c0-1.23,0.37-3.28,1.12-6.18
	c0.75-2.59,1.68-5.39,2.81-8.42c2.04-5.11,3.39-9.8,4.03-14.09c0.03-0.41,0.05-0.82,0.05-1.23c0-3.81-1.06-6.65-3.17-8.53
	c-1.97-1.77-4.31-2.65-6.99-2.65c-0.44,0-1.59,0.09-3.45,0.26c-1.85,0.17-4.06,1.63-6.61,4.39c-0.41,0.51-0.61,0.94-0.61,1.28
	c0,0.03,0.02,0.15,0.05,0.36c0.03,0.2,0.2,0.43,0.51,0.66c0.31,0.24,0.6,0.43,0.87,0.56c0.1,0.07,0.19,0.12,0.26,0.15
	c0.88,0.51,1.55,1.28,1.99,2.3c0.24,0.48,0.36,1.07,0.36,1.79c0,0.71-0.12,1.53-0.36,2.45c-1.19,4.39-2.25,8.08-3.17,11.08
	c-0.95,2.49-1.8,5.11-2.55,7.86c-0.75,2.86-1.21,5.19-1.38,6.99c-0.07,0.75-0.1,1.48-0.1,2.2c0,2.93,0.58,5.67,1.74,8.22
	c1.16,2.55,3.18,4.08,6.08,4.59c0.48,0.03,0.95,0.05,1.43,0.05c3.23,0,6.3-1.23,9.22-3.68c2.91-2.45,5.61-5.51,8.09-9.19
	c0.03,3.34,0.76,6.2,2.17,8.58s3.43,3.8,6.05,4.24c0.54,0.07,1.07,0.1,1.58,0.1c3.37,0,6.62-1.23,9.75-3.7
	c3.13-2.47,5.93-5.64,8.4-9.52c2.47-3.88,4.41-7.45,5.82-10.7c1.41-3.25,2.17-5.27,2.27-6.05v-0.1c0-0.54-0.32-0.99-0.97-1.33
	c-0.51-0.24-1.06-0.36-1.63-0.36c-0.2,0-0.57,0.03-1.1,0.1c-0.53,0.07-0.96,0.51-1.3,1.33c-0.61,1.91-1.96,4.67-4.03,8.3
	c-2.08,3.62-4.65,6.58-7.71,8.86c-0.65,0.44-1.17,0.66-1.58,0.66c-0.41,0-0.7-0.24-0.87-0.71c-0.07-0.2-0.1-0.51-0.1-0.92
	c0-1.23,0.37-3.28,1.12-6.18c0.85-2.96,1.77-5.77,2.76-8.42c1.7-4.29,2.98-9,3.83-14.14c0.07-0.75,0.1-1.46,0.1-2.14
	c0-3.3-0.95-5.82-2.86-7.56c-2.04-1.8-4.46-2.71-7.25-2.71c-0.41,0-1.56,0.09-3.45,0.26C373.64,345.73,371.42,347.19,368.87,349.95z
	"/>
</svg>
